<?xml version="1.0" encoding="UTF-8" standalone="no"?>
<svg
   xmlns:dc="http://purl.org/dc/elements/1.1/"
   xmlns:cc="http://creativecommons.org/ns#"
   xmlns:rdf="http://www.w3.org/1999/02/22-rdf-syntax-ns#"
   xmlns:svg="http://www.w3.org/2000/svg"
   xmlns="http://www.w3.org/2000/svg"
   viewBox="0 0 1056 816"
   height="816"
   width="1056"
   xml:space="preserve"
   id="svg2"
   version="1.1"><metadata
     id="metadata8"><rdf:RDF><cc:Work
         rdf:about=""><dc:format>image/svg+xml</dc:format><dc:type
           rdf:resource="http://purl.org/dc/dcmitype/StillImage" /></cc:Work></rdf:RDF></metadata><defs
     id="defs6" /><g
     transform="matrix(1.3333333,0,0,-1.3333333,0,816)"
     id="g10"><g
       id="g12"><path
         id="path14"
         style="fill:#000000;fill-opacity:1;fill-rule:nonzero;stroke:none"
         d="M 0,0 H 792 V 612 H 0 Z" /></g><g
       transform="translate(201.514,324.648)"
       id="g16"><g
         transform="matrix(1.85289,0,0,1.85289,-52.52202,-525.22761)"
         id="g18"><g
           id="g20"><g
             id="g22"><path
               id="path24"
               style="fill:none;stroke:#ffffff;stroke-width:0.3985;stroke-linecap:butt;stroke-linejoin:miter;stroke-miterlimit:10;stroke-dasharray:none;stroke-opacity:1"
               d="m 85.04042,276.38138 -2e-5,-44.78789 m 0,-23.81145 2e-5,-44.7879" /><g
               id="g26" /><g
               id="g28" /><g
               id="g30"><g
                 id="g32"><g
                   id="g34"><path
                     id="path36"
                     style="fill:none;stroke:#ffffff;stroke-width:0.79699999;stroke-linecap:butt;stroke-linejoin:miter;stroke-miterlimit:10;stroke-dasharray:none;stroke-opacity:1"
                     d="m 96.94612,219.68776 c 0,6.57542 -5.33029,11.90573 -11.90572,11.90573 -6.57542,0 -11.90571,-5.33031 -11.90571,-11.90573 0,-6.57541 5.33029,-11.90572 11.90571,-11.90572 6.57543,0 11.90572,5.33031 11.90572,11.90572 z" /></g><g
                   transform="translate(80.39,212.347)"
                   id="g38"><g
                     transform="translate(-253.558,-253.531)"
                     id="g40"><text
                       id="text44"
                       style="font-variant:normal;font-weight:normal;font-size:11.9552002px;font-family:CMSY10;-inkscape-font-specification:CMSY10;writing-mode:lr-tb;fill:#ffffff;fill-opacity:1;fill-rule:nonzero;stroke:none"
                       transform="matrix(1,0,0,-1,253.558,253.531)"><tspan
                         id="tspan42"
                         y="0"
                         x="0">−</tspan></text>
<g
                       transform="translate(253.558,253.531)"
                       id="g46" /></g><g
                     transform="translate(-80.39,-212.347)"
                     id="g48" /></g><g
                   transform="translate(80.487,221.128)"
                   id="g50"><g
                     transform="translate(-253.655,-262.312)"
                     id="g52"><text
                       id="text56"
                       style="font-variant:normal;font-weight:normal;font-size:11.9552002px;font-family:CMR12;-inkscape-font-specification:CMR12;writing-mode:lr-tb;fill:#ffffff;fill-opacity:1;fill-rule:nonzero;stroke:none"
                       transform="matrix(1,0,0,-1,253.655,262.312)"><tspan
                         id="tspan54"
                         y="0"
                         x="0">+</tspan></text>
<g
                       transform="translate(253.655,262.312)"
                       id="g58" /></g><g
                     transform="translate(-80.487,-221.128)"
                     id="g60" /></g></g><g
                 transform="rotate(-90,152.362,67.323)"
                 id="g62"><g
                   id="g64" /><g
                   transform="translate(-85.039,-219.685)"
                   id="g66" /></g></g><g
               id="g68" /><g
               id="g70" /><g
               id="g72" /><g
               id="g74" /><g
               id="g76" /><g
               id="g78" /><g
               id="g80" /><g
               id="g82" /><g
               id="g84" /><g
               id="g86" /><g
               id="g88" /><path
               id="path90"
               style="fill:none;stroke:#ffffff;stroke-width:0.3985;stroke-linecap:butt;stroke-linejoin:miter;stroke-miterlimit:10;stroke-dasharray:none;stroke-opacity:1"
               d="M 141.73404,276.38138 H 157.75 m 31.74838,0 h 16.01598" /><g
               id="g92" /><g
               id="g94" /><g
               id="g96"><g
                 id="g98"><path
                   id="path100"
                   style="fill:none;stroke:#ffffff;stroke-width:0.79699999;stroke-linecap:butt;stroke-linejoin:bevel;stroke-miterlimit:10;stroke-dasharray:none;stroke-opacity:1"
                   d="m 157.35149,276.38138 3.0442,5.95286 5.29138,-11.90571 5.29138,11.90571 5.29139,-11.90571 5.29138,11.90571 5.29138,-11.90571 3.0442,5.95285" /></g><g
                 transform="translate(173.622,276.378)"
                 id="g102"><g
                   id="g104" /><g
                   transform="translate(-173.622,-276.378)"
                   id="g106" /></g></g><g
               id="g108" /><g
               id="g110" /><path
               id="path112"
               style="fill:none;stroke:#ffffff;stroke-width:0.3985;stroke-linecap:butt;stroke-linejoin:miter;stroke-miterlimit:10;stroke-dasharray:none;stroke-opacity:1"
               d="m 205.51436,276.38138 v -52.72515 m 0,-7.93695 v -52.72514" /><g
               id="g114" /><g
               id="g116" /><g
               id="g118"><g
                 id="g120"><g
                   id="g122" /><path
                   id="path124"
                   style="fill:none;stroke:#ffffff;stroke-width:0.79699999;stroke-linecap:butt;stroke-linejoin:miter;stroke-miterlimit:10;stroke-dasharray:none;stroke-opacity:1"
                   d="m 217.42007,223.65623 h -23.81144 m 23.81144,-7.93695 h -23.81144" /></g><g
                 transform="rotate(-90,212.5985,7.0865)"
                 id="g126"><g
                   id="g128" /><g
                   transform="translate(-205.512,-219.685)"
                   id="g130" /></g></g><g
               id="g132" /><g
               id="g134" /><path
               id="path136"
               style="fill:none;stroke:#ffffff;stroke-width:0.3985;stroke-linecap:butt;stroke-linejoin:miter;stroke-miterlimit:10;stroke-dasharray:none;stroke-opacity:1"
               d="m 205.51436,276.38138 h 21.2601 m 0,0 h 21.26012" /><g
               id="g138" /><g
               id="g140" /><g
               id="g142"><g
                 id="g144" /><g
                 transform="translate(226.771,276.378)"
                 id="g146"><g
                   id="g148" /><g
                   transform="translate(-226.771,-276.378)"
                   id="g150" /></g></g><g
               id="g152" /><g
               id="g154" /><path
               id="path156"
               style="fill:none;stroke:#ffffff;stroke-width:0.3985;stroke-linecap:butt;stroke-linejoin:miter;stroke-miterlimit:10;stroke-dasharray:none;stroke-opacity:1"
               d="m 85.04042,162.99414 h 81.49706 m 0,0 h 81.4971" /><g
               id="g158" /><g
               id="g160" /><g
               id="g162"><g
                 id="g164" /><g
                 transform="translate(166.535,162.992)"
                 id="g166"><g
                   id="g168" /><g
                   transform="translate(-166.535,-162.992)"
                   id="g170" /></g></g><g
               id="g172" /><g
               id="g174" /><path
               id="path176"
               style="fill:none;stroke:#ffffff;stroke-width:0.3985;stroke-linecap:butt;stroke-linejoin:miter;stroke-miterlimit:10;stroke-dasharray:none;stroke-opacity:1"
               d="m 248.03458,276.38138 -2e-5,-44.78789 m 0,-23.81145 2e-5,-44.7879" /><g
               id="g178" /><g
               id="g180" /><g
               id="g182"><g
                 id="g184"><path
                   id="path186"
                   style="fill:none;stroke:#ffffff;stroke-width:0.79699999;stroke-linecap:butt;stroke-linejoin:bevel;stroke-miterlimit:10;stroke-dasharray:none;stroke-opacity:1"
                   d="m 247.87517,231.99199 c 3.2877,0 5.95285,-1.63475 5.95285,-3.65135 0,-2.0166 -2.66515,-3.65135 -5.95285,-3.65135 -1.64376,0 -2.97627,0.66626 -2.97627,1.48814 0,0.82188 1.33251,1.48814 2.97627,1.48814 3.2877,0 5.95285,-1.63475 5.95285,-3.65135 0,-2.0166 -2.66515,-3.65135 -5.95285,-3.65135 -1.64376,0 -2.97627,0.66626 -2.97627,1.48814 0,0.82187 1.33251,1.48813 2.97627,1.48813 3.2877,0 5.95285,-1.63475 5.95285,-3.65135 0,-2.0166 -2.66515,-3.65134 -5.95285,-3.65134 -1.64376,0 -2.97627,0.66625 -2.97627,1.48813 0,0.82189 1.33251,1.48815 2.97627,1.48815 3.2877,0 5.95285,-1.63475 5.95285,-3.65136 0,-2.0166 -2.66515,-3.65135 -5.95285,-3.65135 -1.64376,0 -2.97627,0.66626 -2.97627,1.48815 0,0.82186 1.33251,1.48813 2.97627,1.48813 3.2877,0 5.95285,-1.63474 5.95285,-3.65134 0,-2.01662 -2.66515,-3.65136 -5.95285,-3.65136" /></g><g
                 transform="rotate(-90,233.858,-14.173)"
                 id="g188"><g
                   id="g190" /><g
                   transform="translate(-248.031,-219.685)"
                   id="g192" /></g></g><g
               id="g194" /><g
               id="g196" /><path
               id="path198"
               style="fill:none;stroke:#ffffff;stroke-width:0.3985;stroke-linecap:butt;stroke-linejoin:miter;stroke-miterlimit:10;stroke-dasharray:none;stroke-opacity:1"
               d="m 85.04042,276.38138 h 21.40175 m 13.89011,0 h 21.40176" /><g
               id="g200" /><g
               id="g202" /><g
               id="g204"><g
                 id="g206"><path
                   id="path208"
                   style="fill:none;stroke:#ffffff;stroke-width:0.79699999;stroke-linecap:butt;stroke-linejoin:miter;stroke-miterlimit:10;stroke-dasharray:none;stroke-opacity:1"
                   d="m 106.44217,276.38138 11.11211,6.94505" /><g
                   id="g210"><path
                     id="path212"
                     style="fill:none;stroke:#ffffff;stroke-width:0.79699999;stroke-linecap:butt;stroke-linejoin:bevel;stroke-miterlimit:10;stroke-dasharray:none;stroke-opacity:1"
                     d="m 114.64966,274.93423 c 0.51697,2.9319 -0.56989,5.91768 -2.85045,7.83133 -0.69789,0.58556 -1.48145,1.04814 -2.31711,1.37551" /><g
                     transform="matrix(-0.95206,0.30583,-0.30583,-0.95206,109.40146,283.76482)"
                     id="g214"><g
                       id="g216"><path
                         id="path218"
                         style="fill:#ffffff;fill-opacity:1;fill-rule:nonzero;stroke:none"
                         d="m 3.1083,0 c -1.29513,0.25902 -3.62635,0.77707 -5.1805,1.94269 1.29513,-1.42464 1.29513,-2.46074 0,-3.88538 C -0.51805,-0.77707 1.81317,-0.25902 3.1083,0 Z" /></g></g></g></g><g
                 transform="translate(113.386,276.378)"
                 id="g220"><g
                   id="g222" /><g
                   transform="translate(-113.386,-276.378)"
                   id="g224" /></g></g><g
               id="g226" /><g
               id="g228" /><path
               id="path230"
               style="fill:none;stroke:#ffffff;stroke-width:0.3985;stroke-linecap:butt;stroke-linejoin:miter;stroke-miterlimit:10;stroke-dasharray:none;stroke-opacity:1"
               d="m 56.69362,162.99414 v -14.1734" /><g
               id="g232"><g
                 id="g234"><g
                   id="g236"><path
                     id="path238"
                     style="fill:none;stroke:#ffffff;stroke-width:0.3985;stroke-linecap:butt;stroke-linejoin:miter;stroke-miterlimit:10;stroke-dasharray:none;stroke-opacity:1"
                     d="M 56.69362,148.82074 V 136.91515" /><path
                     id="path240"
                     style="fill:none;stroke:#ffffff;stroke-width:0.79699999;stroke-linecap:butt;stroke-linejoin:miter;stroke-miterlimit:10;stroke-dasharray:none;stroke-opacity:1"
                     d="m 50.74075,136.91515 h 11.90572 m -9.92134,-1.98424 h 7.93697 m -6.44881,-1.98438 h 4.96064" /></g></g><g
                 transform="translate(56.693,148.819)"
                 id="g242"><g
                   id="g244" /><g
                   transform="translate(-56.693,-148.819)"
                   id="g246" /></g></g><path
               id="path248"
               style="fill:none;stroke:#ffffff;stroke-width:0.3985;stroke-linecap:butt;stroke-linejoin:miter;stroke-miterlimit:10;stroke-dasharray:none;stroke-opacity:1"
               d="M 56.69362,162.99414 H 70.867 m 0,0 h 14.17342" /><g
               id="g250" /><g
               id="g252" /><g
               id="g254"><g
                 id="g256" /><g
                 transform="translate(70.866,162.992)"
                 id="g258"><g
                   id="g260" /><g
                   transform="translate(-70.866,-162.992)"
                   id="g262" /></g></g><g
               id="g264" /><g
               id="g266" /><path
               id="path268"
               style="fill:none;stroke:#ffffff;stroke-width:0.3985;stroke-linecap:butt;stroke-linejoin:miter;stroke-miterlimit:10;stroke-dasharray:none;stroke-opacity:1"
               d="M 85.04042,276.38138 H 61.93773 m -31.74838,0 H 7.08669" /><g
               id="g270" /><g
               id="g272" /><g
               id="g274"><g
                 id="g276"><path
                   id="path278"
                   style="fill:none;stroke:#ffffff;stroke-width:0.79699999;stroke-linecap:butt;stroke-linejoin:bevel;stroke-miterlimit:10;stroke-dasharray:none;stroke-opacity:1"
                   d="m 62.33624,276.38138 -3.0442,-5.95285 -5.29138,11.90571 -5.29139,-11.90571 -5.29137,11.90571 -5.29139,-11.90571 -5.29138,11.90571 -3.04421,-5.95286" /></g><g
                 transform="rotate(180,23.0315,138.189)"
                 id="g280"><g
                   id="g282" /><g
                   transform="translate(-46.063,-276.378)"
                   id="g284" /></g></g><g
               id="g286" /><g
               id="g288" /><path
               id="path290"
               style="fill:none;stroke:#ffffff;stroke-width:0.3985;stroke-linecap:butt;stroke-linejoin:miter;stroke-miterlimit:10;stroke-dasharray:none;stroke-opacity:1"
               d="m 7.08669,276.38138 -2e-5,-48.75665 m 0,-15.87392 2e-5,-48.75667" /><g
               id="g292" /><g
               id="g294" /><g
               id="g296"><g
                 id="g298"><g
                   id="g300"><path
                     id="path302"
                     style="fill:#ffffff;fill-opacity:1;fill-rule:nonzero;stroke:#ffffff;stroke-width:0.79699999;stroke-linecap:butt;stroke-linejoin:miter;stroke-miterlimit:10;stroke-dasharray:none;stroke-opacity:1"
                     d="m 7.08667,211.75081 9.92134,15.87392 H -2.83466 Z" /><g
                     id="g304" /></g><path
                   id="path306"
                   style="fill:none;stroke:#ffffff;stroke-width:0.79699999;stroke-linecap:butt;stroke-linejoin:miter;stroke-miterlimit:10;stroke-dasharray:none;stroke-opacity:1"
                   d="M -2.83466,211.75081 H 17.00801" /></g><g
                 transform="rotate(-90,113.386,106.299)"
                 id="g308"><g
                   id="g310" /><g
                   transform="translate(-7.087,-219.685)"
                   id="g312" /></g></g><g
               id="g314" /><g
               id="g316" /><path
               id="path318"
               style="fill:none;stroke:#ffffff;stroke-width:0.3985;stroke-linecap:butt;stroke-linejoin:miter;stroke-miterlimit:10;stroke-dasharray:none;stroke-opacity:1"
               d="m 7.08669,162.99414 v -14.1734" /><g
               id="g320"><g
                 id="g322"><g
                   id="g324"><path
                     id="path326"
                     style="fill:none;stroke:#ffffff;stroke-width:0.3985;stroke-linecap:butt;stroke-linejoin:miter;stroke-miterlimit:10;stroke-dasharray:none;stroke-opacity:1"
                     d="M 7.08669,148.82074 V 136.91515" /><path
                     id="path328"
                     style="fill:none;stroke:#ffffff;stroke-width:0.79699999;stroke-linecap:butt;stroke-linejoin:miter;stroke-miterlimit:10;stroke-dasharray:none;stroke-opacity:1"
                     d="m 1.13383,136.91515 h 11.90571 m -9.92133,-1.98424 h 7.93695 M 4.60635,132.94653 H 9.567" /></g></g><g
                 transform="translate(7.087,148.819)"
                 id="g330"><g
                   id="g332" /><g
                   transform="translate(-7.087,-148.819)"
                   id="g334" /></g></g><path
               id="path336"
               style="fill:none;stroke:#ffffff;stroke-width:0.3985;stroke-linecap:butt;stroke-linejoin:miter;stroke-miterlimit:10;stroke-dasharray:none;stroke-opacity:1"
               d="m 7.08669,276.38138 -2e-5,38.55174 m 0,7.93695 2e-5,38.55174" /><g
               id="g338" /><g
               id="g340" /><g
               id="g342"><g
                 id="g344"><g
                   id="g346" /><path
                   id="path348"
                   style="fill:none;stroke:#ffffff;stroke-width:0.79699999;stroke-linecap:butt;stroke-linejoin:miter;stroke-miterlimit:10;stroke-dasharray:none;stroke-opacity:1"
                   d="m -4.81903,314.93312 h 23.81142 m -23.81142,7.93695 h 23.81142" /></g><g
                 transform="rotate(90,-155.905,162.992)"
                 id="g350"><g
                   id="g352" /><g
                   transform="translate(-7.087,-318.897)"
                   id="g354" /></g></g><g
               id="g356" /><g
               id="g358" /><g
               id="g360" /><g
               id="g362"><g
                 transform="translate(-17.903,316.324)"
                 id="g364"><g
                   id="g366"><g
                     transform="translate(-155.265,-357.508)"
                     id="g368"><text
                       id="text372"
                       style="font-variant:normal;font-weight:normal;font-size:9.96259975px;font-family:CMSY10;-inkscape-font-specification:CMSY10;writing-mode:lr-tb;fill:#ffffff;fill-opacity:1;fill-rule:nonzero;stroke:none"
                       transform="matrix(1,0,0,-1,155.265,357.508)"><tspan
                         id="tspan370"
                         y="0"
                         x="0">∞</tspan></text>
<g
                       transform="translate(155.265,357.508)"
                       id="g374" /></g></g><g
                   transform="translate(17.903,-316.324)"
                   id="g376" /></g></g><path
               id="path378"
               style="fill:none;stroke:#ffffff;stroke-width:0.3985;stroke-linecap:butt;stroke-linejoin:miter;stroke-miterlimit:10;stroke-dasharray:none;stroke-opacity:1"
               d="m 7.08669,361.42181 -2e-5,12.4726 m 0,31.74839 2e-5,12.47263" /><g
               id="g380" /><g
               id="g382" /><g
               id="g384"><g
                 id="g386"><path
                   id="path388"
                   style="fill:none;stroke:#ffffff;stroke-width:0.79699999;stroke-linecap:butt;stroke-linejoin:bevel;stroke-miterlimit:10;stroke-dasharray:none;stroke-opacity:1"
                   d="m 7.08667,373.49591 -5.95285,3.04419 11.9057,5.29138 -11.9057,5.2914 11.9057,5.29138 -11.9057,5.29138 11.9057,5.29138 -5.95285,3.04419" /></g><g
                 transform="rotate(90,-191.3385,198.4255)"
                 id="g390"><g
                   id="g392" /><g
                   transform="translate(-7.087,-389.764)"
                   id="g394" /></g></g><g
               id="g396" /><g
               id="g398" /><path
               id="path400"
               style="fill:none;stroke:#ffffff;stroke-width:0.3985;stroke-linecap:butt;stroke-linejoin:miter;stroke-miterlimit:10;stroke-dasharray:none;stroke-opacity:1"
               d="m 85.04042,418.11543 -2e-5,-34.15785 m 0,-23.81145 2e-5,-34.15783" /><g
               id="g402" /><g
               id="g404" /><g
               id="g406"><g
                 id="g408"><path
                   id="path410"
                   style="fill:none;stroke:#ffffff;stroke-width:0.79699999;stroke-linecap:butt;stroke-linejoin:miter;stroke-miterlimit:10;stroke-dasharray:none;stroke-opacity:1"
                   d="m 96.94612,372.05186 c 0,6.57541 -5.33029,11.90572 -11.90572,11.90572 -6.57542,0 -11.90571,-5.33031 -11.90571,-11.90572 0,-6.57542 5.33029,-11.90573 11.90571,-11.90573 6.57543,0 11.90572,5.33031 11.90572,11.90573 z" /><g
                   id="g412"><path
                     id="path414"
                     style="fill:none;stroke:#ffffff;stroke-width:0.79699999;stroke-linecap:butt;stroke-linejoin:miter;stroke-miterlimit:10;stroke-dasharray:none;stroke-opacity:1"
                     d="m 79.08755,372.05186 c 0.97031,1.5239 1.89896,2.97643 2.97643,2.97643 1.07745,0 2.0061,-1.45251 2.97642,-2.97643 0.97031,-1.52391 1.89896,-2.97642 2.97643,-2.97642 1.07745,0 2.0061,1.4525 2.97643,2.97642" /></g></g><g
                 transform="rotate(-90,228.543,143.504)"
                 id="g416"><g
                   id="g418" /><g
                   transform="translate(-85.039,-372.047)"
                   id="g420" /></g></g><g
               id="g422" /><g
               id="g424" /><g
               id="g426" /><g
               id="g428" /><g
               id="g430" /><g
               id="g432" /><g
               id="g434" /><g
               id="g436" /><g
               id="g438" /><g
               id="g440" /><g
               id="g442" /><path
               id="path444"
               style="fill:none;stroke:#ffffff;stroke-width:0.3985;stroke-linecap:butt;stroke-linejoin:miter;stroke-miterlimit:10;stroke-dasharray:none;stroke-opacity:1"
               d="m 85.04042,418.11543 -38.97688,-1e-5 m 0,0 -38.97685,1e-5" /><g
               id="g446" /><g
               id="g448" /><g
               id="g450"><g
                 id="g452" /><g
                 transform="rotate(180,23.0315,209.055)"
                 id="g454"><g
                   id="g456" /><g
                   transform="translate(-46.063,-418.11)"
                   id="g458" /></g></g><g
               id="g460" /><g
               id="g462" /><path
               id="path464"
               style="fill:none;stroke:#ffffff;stroke-width:0.3985;stroke-linecap:butt;stroke-linejoin:miter;stroke-miterlimit:10;stroke-dasharray:none;stroke-opacity:1"
               d="M 85.04042,325.9883 V 311.8149" /><g
               id="g466"><g
                 id="g468"><g
                   id="g470"><path
                     id="path472"
                     style="fill:none;stroke:#ffffff;stroke-width:0.3985;stroke-linecap:butt;stroke-linejoin:miter;stroke-miterlimit:10;stroke-dasharray:none;stroke-opacity:1"
                     d="M 85.04042,311.8149 V 299.90932" /><path
                     id="path474"
                     style="fill:none;stroke:#ffffff;stroke-width:0.79699999;stroke-linecap:butt;stroke-linejoin:miter;stroke-miterlimit:10;stroke-dasharray:none;stroke-opacity:1"
                     d="m 79.08757,299.90932 h 11.9057 m -9.92132,-1.98424 h 7.93695 m -6.4488,-1.98438 h 4.96065" /></g></g><g
                 transform="translate(85.039,311.811)"
                 id="g476"><g
                   id="g478" /><g
                   transform="translate(-85.039,-311.811)"
                   id="g480" /></g></g><path
               id="path482"
               style="fill:none;stroke:#ffffff;stroke-width:0.3985;stroke-linecap:butt;stroke-linejoin:miter;stroke-miterlimit:10;stroke-dasharray:none;stroke-opacity:1"
               d="m 85.04042,418.11543 17.85838,-1e-5 m 13.89013,0 17.85841,1e-5" /><g
               id="g484" /><g
               id="g486" /><g
               id="g488"><g
                 id="g490"><path
                   id="path492"
                   style="fill:none;stroke:#ffffff;stroke-width:0.79699999;stroke-linecap:butt;stroke-linejoin:miter;stroke-miterlimit:10;stroke-dasharray:none;stroke-opacity:1"
                   d="m 102.8988,418.11542 11.11213,6.94505" /><g
                   id="g494"><path
                     id="path496"
                     style="fill:none;stroke:#ffffff;stroke-width:0.79699999;stroke-linecap:butt;stroke-linejoin:bevel;stroke-miterlimit:10;stroke-dasharray:none;stroke-opacity:1"
                     d="m 111.10631,416.66827 c 0.51697,2.93189 -0.56989,5.91767 -2.85047,7.83133 -0.69786,0.58556 -1.48144,1.04814 -2.31709,1.3755" /><g
                     transform="matrix(-0.95206,0.30583,-0.30583,-0.95206,105.85811,425.49886)"
                     id="g498"><g
                       id="g500"><path
                         id="path502"
                         style="fill:#ffffff;fill-opacity:1;fill-rule:nonzero;stroke:none"
                         d="m 3.1083,0 c -1.29513,0.25902 -3.62635,0.77707 -5.1805,1.94269 1.29513,-1.42464 1.29513,-2.46074 0,-3.88538 C -0.51805,-0.77707 1.81317,-0.25902 3.1083,0 Z" /></g></g></g></g><g
                 transform="translate(109.842,418.11)"
                 id="g504"><g
                   id="g506" /><g
                   transform="translate(-109.842,-418.11)"
                   id="g508" /></g></g><g
               id="g510" /><g
               id="g512" /><path
               id="path514"
               style="fill:none;stroke:#ffffff;stroke-width:0.3985;stroke-linecap:butt;stroke-linejoin:miter;stroke-miterlimit:10;stroke-dasharray:none;stroke-opacity:1"
               d="m 134.64734,418.11543 23.10266,-1e-5 m 31.74838,0 23.10268,1e-5" /><g
               id="g516" /><g
               id="g518" /><g
               id="g520"><g
                 id="g522"><path
                   id="path524"
                   style="fill:none;stroke:#ffffff;stroke-width:0.79699999;stroke-linecap:butt;stroke-linejoin:bevel;stroke-miterlimit:10;stroke-dasharray:none;stroke-opacity:1"
                   d="m 157.35149,418.11542 3.0442,5.95285 5.29138,-11.9057 5.29138,11.9057 5.29139,-11.9057 5.29138,11.9057 5.29138,-11.9057 3.0442,5.95285" /></g><g
                 transform="translate(173.622,418.11)"
                 id="g526"><g
                   id="g528" /><g
                   transform="translate(-173.622,-418.11)"
                   id="g530" /></g></g><g
               id="g532" /><g
               id="g534" /><path
               id="path536"
               style="fill:none;stroke:#ffffff;stroke-width:0.3985;stroke-linecap:butt;stroke-linejoin:miter;stroke-miterlimit:10;stroke-dasharray:none;stroke-opacity:1"
               d="m 212.60106,418.11543 v -42.09509 m 0,-7.93695 V 325.9883" /><g
               id="g538" /><g
               id="g540" /><g
               id="g542"><g
                 id="g544"><g
                   id="g546" /><path
                   id="path548"
                   style="fill:none;stroke:#ffffff;stroke-width:0.79699999;stroke-linecap:butt;stroke-linejoin:miter;stroke-miterlimit:10;stroke-dasharray:none;stroke-opacity:1"
                   d="m 224.50677,376.02034 h -23.81143 m 23.81143,-7.93695 h -23.81143" /></g><g
                 transform="rotate(-90,292.3225,79.7245)"
                 id="g550"><g
                   id="g552" /><g
                   transform="translate(-212.598,-372.047)"
                   id="g554" /></g></g><g
               id="g556" /><g
               id="g558" /><path
               id="path560"
               style="fill:none;stroke:#ffffff;stroke-width:0.3985;stroke-linecap:butt;stroke-linejoin:miter;stroke-miterlimit:10;stroke-dasharray:none;stroke-opacity:1"
               d="m 85.04042,325.9883 h 51.87459 m 23.81145,0 h 51.8746" /><g
               id="g562" /><g
               id="g564" /><g
               id="g566"><g
                 id="g568"><path
                   id="path570"
                   style="fill:none;stroke:#ffffff;stroke-width:0.79699999;stroke-linecap:butt;stroke-linejoin:bevel;stroke-miterlimit:10;stroke-dasharray:none;stroke-opacity:1"
                   d="m 136.51651,325.8289 c 0,3.28771 1.63475,5.95285 3.65135,5.95285 2.0166,0 3.65134,-2.66514 3.65134,-5.95285 0,-1.64375 -0.66625,-2.97627 -1.48813,-2.97627 -0.82188,0 -1.48814,1.33252 -1.48814,2.97627 0,3.28771 1.63475,5.95285 3.65135,5.95285 2.0166,0 3.65135,-2.66514 3.65135,-5.95285 0,-1.64375 -0.66626,-2.97627 -1.48814,-2.97627 -0.82187,0 -1.48813,1.33252 -1.48813,2.97627 0,3.28771 1.63474,5.95285 3.65135,5.95285 2.0166,0 3.65134,-2.66514 3.65134,-5.95285 0,-1.64375 -0.66626,-2.97627 -1.48813,-2.97627 -0.82189,0 -1.48815,1.33252 -1.48815,2.97627 0,3.28771 1.63475,5.95285 3.65136,5.95285 2.0166,0 3.65135,-2.66514 3.65135,-5.95285 0,-1.64375 -0.66626,-2.97627 -1.48815,-2.97627 -0.82188,0 -1.48813,1.33252 -1.48813,2.97627 0,3.28771 1.63474,5.95285 3.65134,5.95285 2.0166,0 3.65136,-2.66514 3.65136,-5.95285" /></g><g
                 transform="translate(148.819,325.984)"
                 id="g572"><g
                   id="g574" /><g
                   transform="translate(-148.819,-325.984)"
                   id="g576" /></g></g><g
               id="g578" /><g
               id="g580" /></g></g><g
           transform="translate(28.346,283.464)"
           id="g582" /></g></g></g></svg>