<svg xmlns="http://www.w3.org/2000/svg" width="934" height="612">
  <defs>
    <clipPath id="a">
      <path fill="none" d="M0 0h934v612H0z"/>
    </clipPath>
  </defs>
  <g clip-path="url(#a)">
    <!-- Black background -->
    <rect width="935" height="612" fill="#000"/>
    
    <!-- All circles and lines in white -->
    <path fill="none" stroke="#fff" paint-order="fill stroke markers" d="M829.29 727.864c0 162.435-131.679 294.114-294.114 294.114s-294.114-131.68-294.114-294.114c0-162.435 131.68-294.115 294.114-294.115 162.435 0 294.115 131.68 294.115 294.115" stroke-opacity=".698" stroke-linecap="round" stroke-linejoin="round" stroke-miterlimit="10"/>
    <path fill="none" stroke="#fff" paint-order="fill stroke markers" d="M512.714 325.47c0 77.177-62.564 139.74-139.74 139.74s-139.74-62.563-139.74-139.74c0-77.175 62.564-139.739 139.74-139.739s139.74 62.564 139.74 139.74" stroke-opacity=".698" stroke-linecap="round" stroke-linejoin="round" stroke-miterlimit="10"/>
    <path fill="none" stroke="#fff" paint-order="fill stroke markers" d="M303.113 132.364c0 89.483-72.54 162.024-162.024 162.024s-162.023-72.54-162.023-162.024S51.606-29.659 141.09-29.659s162.024 72.54 162.024 162.023M1851.327-196.6c0 416.162-337.366 753.528-753.529 753.528-416.162 0-753.528-337.366-753.528-753.528s337.366-753.53 753.528-753.53 753.529 337.366 753.529 753.529" stroke-opacity=".698" stroke-linecap="round" stroke-linejoin="round" stroke-miterlimit="10"/>
    <path fill="none" stroke="#fff" paint-order="fill stroke markers" d="M472.268 278.079c0 50.672-41.078 91.75-91.75 91.75-50.673 0-91.751-41.078-91.751-91.75 0-50.673 41.078-91.751 91.75-91.751 50.673 0 91.751 41.078 91.751 91.75" stroke-opacity=".698" stroke-linecap="round" stroke-linejoin="round" stroke-miterlimit="10"/>
    <path fill="none" stroke="#fff" paint-order="fill stroke markers" d="M310.396 74.148 281.072 343.89m0 0 412.054 124.44m0 0L310.396 74.148" stroke-opacity=".698" stroke-linecap="round" stroke-linejoin="round" stroke-miterlimit="10" stroke-width="1.5"/>
    <path fill="none" stroke="#fff" paint-order="fill stroke markers" d="m310.396 74.148 114.822 380.929M281.072 343.89 486.363 243.8m-220.769-7.752L693.126 468.33" stroke-opacity=".698" stroke-linejoin="round" stroke-miterlimit="10" stroke-dasharray="9,8"/>
    <path fill="none" stroke="#fff" paint-order="fill stroke markers" d="m693.126 468.33 53.063 54.65m-53.063-54.65 186.824 56.421M310.396 74.148l-53.063-54.65m23.739 324.392L94.248 287.469M310.396 74.148 319-5m-37.928 348.89L251.38 617" stroke-opacity=".698" stroke-linecap="round" stroke-linejoin="round" stroke-miterlimit="10"/>
    <path fill="none" stroke="#fff" paint-order="fill stroke markers" d="m394.94 187.468-21.966 138.003" stroke-opacity=".698" stroke-linejoin="round" stroke-miterlimit="10" stroke-width="1.5" stroke-dasharray="9.5,8"/>
    
    <!-- All points in white -->
    <path fill="#fff" paint-order="stroke fill markers" d="M313.396 74.148a3 3 0 1 1-6 0 3 3 0 0 1 6 0"/>
    <text fill="#fff" font-family="geogebra-sans-serif, sans-serif" font-size="16" text-decoration="normal" x="320" y="73" dominant-baseline="alphabetic">A</text>
    <path fill="#fff" paint-order="stroke fill markers" d="M284.072 343.89a3 3 0 1 1-6 0 3 3 0 0 1 6 0"/>
    <text fill="#fff" font-family="geogebra-sans-serif, sans-serif" font-size="16" text-decoration="normal" x="261" y="363" dominant-baseline="alphabetic">B</text>
    <path fill="#fff" paint-order="stroke fill markers" d="M696.126 468.33a3 3 0 1 1-6 0 3 3 0 0 1 6 0"/>
    <text fill="#fff" font-family="geogebra-sans-serif, sans-serif" font-size="16" text-decoration="normal" x="682" y="491" dominant-baseline="alphabetic">C</text>
    <path fill="#fff" paint-order="stroke fill markers" d="M428.218 455.077a3 3 0 1 1-6 0 3 3 0 0 1 6 0"/>
    <text fill="#fff" font-family="geogebra-sans-serif, sans-serif" font-size="16" text-decoration="normal" x="406" y="485" dominant-baseline="alphabetic">T</text>
    <text fill="#fff" font-family="geogebra-sans-serif, sans-serif" font-size="14" text-decoration="normal" x="416" y="492" dominant-baseline="alphabetic">a</text>
    <path fill="#fff" paint-order="stroke fill markers" d="M383.518 278.079a3 3 0 1 1-6 0 3 3 0 0 1 6 0"/>
    <text fill="#fff" font-family="geogebra-sans-serif, sans-serif" font-size="16" text-decoration="normal" x="394" y="275" dominant-baseline="alphabetic">I</text>
    <path fill="#fff" paint-order="stroke fill markers" d="M268.594 236.048a3 3 0 1 1-6 0 3 3 0 0 1 6 0"/>
    <text fill="#fff" font-family="geogebra-sans-serif, sans-serif" font-size="16" text-decoration="normal" x="232" y="232" dominant-baseline="alphabetic">T</text>
    <text fill="#fff" font-family="geogebra-sans-serif, sans-serif" font-size="14" text-decoration="normal" x="242" y="239" dominant-baseline="alphabetic">c</text>
    <path fill="#fff" paint-order="stroke fill markers" d="M397.94 187.468a3 3 0 1 1-6 0 3 3 0 0 1 6 0"/>
    <text fill="#fff" font-family="geogebra-sans-serif, sans-serif" font-size="16" text-decoration="normal" x="393" y="178" dominant-baseline="alphabetic">F</text>
    <path fill="#fff" paint-order="stroke fill markers" d="M489.363 243.8a3 3 0 1 1-6 0 3 3 0 0 1 6 0"/>
    <text fill="#fff" font-family="geogebra-sans-serif, sans-serif" font-size="16" text-decoration="normal" x="507" y="244" dominant-baseline="alphabetic">T</text>
    <text fill="#fff" font-family="geogebra-sans-serif, sans-serif" font-size="14" text-decoration="normal" x="517" y="251" dominant-baseline="alphabetic">b</text>
    <path fill="#fff" paint-order="stroke fill markers" d="M375.974 325.47a3 3 0 1 1-6 0 3 3 0 0 1 6 0"/>
    <text fill="#fff" font-family="geogebra-sans-serif, sans-serif" font-size="16" text-decoration="normal" x="352" y="329" dominant-baseline="alphabetic">E</text>
    <path fill="#fff" paint-order="stroke fill markers" d="M144.09 132.364a3 3 0 1 1-6 0 3 3 0 0 1 6 0"/>
    <text fill="#fff" font-family="geogebra-sans-serif, sans-serif" font-size="16" text-decoration="normal" x="145" y="126" dominant-baseline="alphabetic">I</text>
    <text fill="#fff" font-family="geogebra-sans-serif, sans-serif" font-size="14" text-decoration="normal" x="149" y="133" dominant-baseline="alphabetic">c</text>
    <path fill="#fff" paint-order="stroke fill markers" d="M490.099 406.11a3 3 0 1 1-6 0 3 3 0 0 1 6 0"/>
    <text fill="#fff" font-family="geogebra-sans-serif, sans-serif" font-size="16" text-decoration="normal" x="475" y="396" dominant-baseline="alphabetic">A'</text>
    <path fill="#fff" paint-order="stroke fill markers" d="M504.761 271.24a3 3 0 1 1-6 0 3 3 0 0 1 6 0"/>
    <text fill="#fff" font-family="geogebra-sans-serif, sans-serif" font-size="16" text-decoration="normal" x="484" y="288" dominant-baseline="alphabetic">B'</text>
    <path fill="#fff" paint-order="stroke fill markers" d="M298.734 209.019a3 3 0 1 1-6 0 3 3 0 0 1 6 0"/>
    <text fill="#fff" font-family="geogebra-sans-serif, sans-serif" font-size="16" text-decoration="normal" x="298" y="222" dominant-baseline="alphabetic">C'</text>
  </g>
</svg>